<mxfile host="app.diagrams.net" modified="2023-08-10T18:01:07.964Z" agent="Mozilla/5.0 (Windows NT 10.0; Win64; x64) AppleWebKit/537.36 (KHTML, like Gecko) Chrome/115.0.0.0 Safari/537.36 Edg/115.0.1901.200" etag="NbjrUIrdMG0kSAqkwFhV" version="21.6.6" type="device">
  <diagram name="Page-1" id="2oYMCXF5-TUsaEHvYZhb">
    <mxGraphModel dx="880" dy="484" grid="1" gridSize="10" guides="1" tooltips="1" connect="1" arrows="1" fold="1" page="1" pageScale="1" pageWidth="850" pageHeight="1100" math="0" shadow="0">
      <root>
        <mxCell id="0" />
        <mxCell id="1" parent="0" />
        <mxCell id="VGfeCfNlBVw7yO7g6xDn-1" value="&lt;font style=&quot;font-weight: normal; font-size: 17px;&quot; face=&quot;Helvetica&quot;&gt;PRODUCTS&lt;/font&gt;" style="shape=table;startSize=30;container=1;collapsible=1;childLayout=tableLayout;fixedRows=1;rowLines=0;fontStyle=1;align=center;resizeLast=1;html=1;hachureGap=4;fontFamily=Architects Daughter;fontSource=https%3A%2F%2Ffonts.googleapis.com%2Fcss%3Ffamily%3DArchitects%2BDaughter;fontSize=20;swimlaneLine=1;" vertex="1" parent="1">
          <mxGeometry x="261" y="140" width="229" height="180" as="geometry" />
        </mxCell>
        <mxCell id="VGfeCfNlBVw7yO7g6xDn-2" value="" style="shape=tableRow;horizontal=0;startSize=0;swimlaneHead=0;swimlaneBody=0;fillColor=none;collapsible=0;dropTarget=0;points=[[0,0.5],[1,0.5]];portConstraint=eastwest;top=0;left=0;right=0;bottom=1;hachureGap=4;fontFamily=Architects Daughter;fontSource=https%3A%2F%2Ffonts.googleapis.com%2Fcss%3Ffamily%3DArchitects%2BDaughter;fontSize=20;" vertex="1" parent="VGfeCfNlBVw7yO7g6xDn-1">
          <mxGeometry y="30" width="229" height="30" as="geometry" />
        </mxCell>
        <mxCell id="VGfeCfNlBVw7yO7g6xDn-3" value="&lt;span style=&quot;font-weight: normal;&quot;&gt;&lt;font face=&quot;Helvetica&quot; style=&quot;font-size: 16px;&quot;&gt;PK&lt;/font&gt;&lt;/span&gt;" style="shape=partialRectangle;connectable=0;fillColor=none;top=0;left=0;bottom=0;right=0;fontStyle=1;overflow=hidden;whiteSpace=wrap;html=1;sketch=1;hachureGap=4;jiggle=2;curveFitting=1;fontFamily=Architects Daughter;fontSource=https%3A%2F%2Ffonts.googleapis.com%2Fcss%3Ffamily%3DArchitects%2BDaughter;fontSize=20;" vertex="1" parent="VGfeCfNlBVw7yO7g6xDn-2">
          <mxGeometry width="30" height="30" as="geometry">
            <mxRectangle width="30" height="30" as="alternateBounds" />
          </mxGeometry>
        </mxCell>
        <mxCell id="VGfeCfNlBVw7yO7g6xDn-4" value="&lt;font style=&quot;font-weight: normal; font-size: 15px;&quot; face=&quot;Helvetica&quot;&gt;PRODUCT_ID: INTEGER&lt;/font&gt;" style="shape=partialRectangle;connectable=0;fillColor=none;top=0;left=0;bottom=0;right=0;align=left;spacingLeft=6;fontStyle=5;overflow=hidden;whiteSpace=wrap;html=1;sketch=1;hachureGap=4;jiggle=2;curveFitting=1;fontFamily=Architects Daughter;fontSource=https%3A%2F%2Ffonts.googleapis.com%2Fcss%3Ffamily%3DArchitects%2BDaughter;fontSize=20;" vertex="1" parent="VGfeCfNlBVw7yO7g6xDn-2">
          <mxGeometry x="30" width="199" height="30" as="geometry">
            <mxRectangle width="199" height="30" as="alternateBounds" />
          </mxGeometry>
        </mxCell>
        <mxCell id="VGfeCfNlBVw7yO7g6xDn-5" value="" style="shape=tableRow;horizontal=0;startSize=0;swimlaneHead=0;swimlaneBody=0;fillColor=none;collapsible=0;dropTarget=0;points=[[0,0.5],[1,0.5]];portConstraint=eastwest;top=0;left=0;right=0;bottom=0;sketch=1;hachureGap=4;jiggle=2;curveFitting=1;fontFamily=Architects Daughter;fontSource=https%3A%2F%2Ffonts.googleapis.com%2Fcss%3Ffamily%3DArchitects%2BDaughter;fontSize=20;" vertex="1" parent="VGfeCfNlBVw7yO7g6xDn-1">
          <mxGeometry y="60" width="229" height="30" as="geometry" />
        </mxCell>
        <mxCell id="VGfeCfNlBVw7yO7g6xDn-6" value="" style="shape=partialRectangle;connectable=0;fillColor=none;top=0;left=0;bottom=0;right=0;editable=1;overflow=hidden;whiteSpace=wrap;html=1;sketch=1;hachureGap=4;jiggle=2;curveFitting=1;fontFamily=Architects Daughter;fontSource=https%3A%2F%2Ffonts.googleapis.com%2Fcss%3Ffamily%3DArchitects%2BDaughter;fontSize=20;" vertex="1" parent="VGfeCfNlBVw7yO7g6xDn-5">
          <mxGeometry width="30" height="30" as="geometry">
            <mxRectangle width="30" height="30" as="alternateBounds" />
          </mxGeometry>
        </mxCell>
        <mxCell id="VGfeCfNlBVw7yO7g6xDn-7" value="&lt;font style=&quot;font-size: 13px;&quot; face=&quot;Helvetica&quot;&gt;PROD_DESC: NVARCHAR&lt;/font&gt;" style="shape=partialRectangle;connectable=0;fillColor=none;top=0;left=0;bottom=0;right=0;align=left;spacingLeft=6;overflow=hidden;whiteSpace=wrap;html=1;hachureGap=4;fontFamily=Architects Daughter;fontSource=https%3A%2F%2Ffonts.googleapis.com%2Fcss%3Ffamily%3DArchitects%2BDaughter;fontSize=20;" vertex="1" parent="VGfeCfNlBVw7yO7g6xDn-5">
          <mxGeometry x="30" width="199" height="30" as="geometry">
            <mxRectangle width="199" height="30" as="alternateBounds" />
          </mxGeometry>
        </mxCell>
        <mxCell id="VGfeCfNlBVw7yO7g6xDn-8" value="" style="shape=tableRow;horizontal=0;startSize=0;swimlaneHead=0;swimlaneBody=0;fillColor=none;collapsible=0;dropTarget=0;points=[[0,0.5],[1,0.5]];portConstraint=eastwest;top=0;left=0;right=0;bottom=0;sketch=1;hachureGap=4;jiggle=2;curveFitting=1;fontFamily=Architects Daughter;fontSource=https%3A%2F%2Ffonts.googleapis.com%2Fcss%3Ffamily%3DArchitects%2BDaughter;fontSize=20;" vertex="1" parent="VGfeCfNlBVw7yO7g6xDn-1">
          <mxGeometry y="90" width="229" height="30" as="geometry" />
        </mxCell>
        <mxCell id="VGfeCfNlBVw7yO7g6xDn-9" value="" style="shape=partialRectangle;connectable=0;fillColor=none;top=0;left=0;bottom=0;right=0;editable=1;overflow=hidden;whiteSpace=wrap;html=1;sketch=1;hachureGap=4;jiggle=2;curveFitting=1;fontFamily=Architects Daughter;fontSource=https%3A%2F%2Ffonts.googleapis.com%2Fcss%3Ffamily%3DArchitects%2BDaughter;fontSize=20;" vertex="1" parent="VGfeCfNlBVw7yO7g6xDn-8">
          <mxGeometry width="30" height="30" as="geometry">
            <mxRectangle width="30" height="30" as="alternateBounds" />
          </mxGeometry>
        </mxCell>
        <mxCell id="VGfeCfNlBVw7yO7g6xDn-10" value="&lt;font face=&quot;Helvetica&quot; style=&quot;font-size: 14px;&quot;&gt;PROD_PRICE: DECIMAL&lt;/font&gt;" style="shape=partialRectangle;connectable=0;fillColor=none;top=0;left=0;bottom=0;right=0;align=left;spacingLeft=6;overflow=hidden;whiteSpace=wrap;html=1;sketch=1;hachureGap=4;jiggle=2;curveFitting=1;fontFamily=Architects Daughter;fontSource=https%3A%2F%2Ffonts.googleapis.com%2Fcss%3Ffamily%3DArchitects%2BDaughter;fontSize=20;" vertex="1" parent="VGfeCfNlBVw7yO7g6xDn-8">
          <mxGeometry x="30" width="199" height="30" as="geometry">
            <mxRectangle width="199" height="30" as="alternateBounds" />
          </mxGeometry>
        </mxCell>
        <mxCell id="VGfeCfNlBVw7yO7g6xDn-11" value="" style="shape=tableRow;horizontal=0;startSize=0;swimlaneHead=0;swimlaneBody=0;fillColor=none;collapsible=0;dropTarget=0;points=[[0,0.5],[1,0.5]];portConstraint=eastwest;top=0;left=0;right=0;bottom=0;sketch=1;hachureGap=4;jiggle=2;curveFitting=1;fontFamily=Architects Daughter;fontSource=https%3A%2F%2Ffonts.googleapis.com%2Fcss%3Ffamily%3DArchitects%2BDaughter;fontSize=20;" vertex="1" parent="VGfeCfNlBVw7yO7g6xDn-1">
          <mxGeometry y="120" width="229" height="60" as="geometry" />
        </mxCell>
        <mxCell id="VGfeCfNlBVw7yO7g6xDn-12" value="&lt;font style=&quot;font-size: 15px;&quot; face=&quot;Helvetica&quot;&gt;&lt;br&gt;FK&lt;/font&gt;" style="shape=partialRectangle;connectable=0;fillColor=none;top=0;left=0;bottom=0;right=0;editable=1;overflow=hidden;whiteSpace=wrap;html=1;sketch=1;hachureGap=4;jiggle=2;curveFitting=1;fontFamily=Architects Daughter;fontSource=https%3A%2F%2Ffonts.googleapis.com%2Fcss%3Ffamily%3DArchitects%2BDaughter;fontSize=20;" vertex="1" parent="VGfeCfNlBVw7yO7g6xDn-11">
          <mxGeometry width="30" height="60" as="geometry">
            <mxRectangle width="30" height="60" as="alternateBounds" />
          </mxGeometry>
        </mxCell>
        <mxCell id="VGfeCfNlBVw7yO7g6xDn-13" value="&lt;font face=&quot;Helvetica&quot; style=&quot;font-size: 13px;&quot;&gt;PROD_QUANTITY: INTEGER&lt;br&gt;SUPPLIER_ID: INTEGER&lt;br&gt;&lt;/font&gt;" style="shape=partialRectangle;connectable=0;fillColor=none;top=0;left=0;bottom=0;right=0;align=left;spacingLeft=6;overflow=hidden;whiteSpace=wrap;html=1;sketch=1;hachureGap=4;jiggle=2;curveFitting=1;fontFamily=Architects Daughter;fontSource=https%3A%2F%2Ffonts.googleapis.com%2Fcss%3Ffamily%3DArchitects%2BDaughter;fontSize=20;" vertex="1" parent="VGfeCfNlBVw7yO7g6xDn-11">
          <mxGeometry x="30" width="199" height="60" as="geometry">
            <mxRectangle width="199" height="60" as="alternateBounds" />
          </mxGeometry>
        </mxCell>
      </root>
    </mxGraphModel>
  </diagram>
</mxfile>
